<svg xmlns="http://www.w3.org/2000/svg" width="72" height="72" viewBox="0 0 72 72">
  <g id="Group_127" data-name="Group 127" transform="translate(-6.5 -6.07)">
    <circle id="Ellipse_9" data-name="Ellipse 9" cx="36" cy="36" r="36" transform="translate(6.5 6.07)" fill="#3ea7fb"/>
    <path id="Path_16" data-name="Path 16" d="M92.357,61.511A35.8,35.8,0,0,1,44.33,95.143c.087-3.554,1-6.793,10.014-9.8,3.513-1.171,3.659-6.217,3.7-9.927q.047-4.332.093-8.676c.019-1.823.1-3.821,1.3-5.2,1.568-1.8,4.394-1.767,6.672-1.07s4.444,1.929,6.827,2.066c3.535.2,6.69-2,9.983-3.3a30.552,30.552,0,0,1,9.2-1.83,35.667,35.667,0,0,1,.236,4.1Z" transform="translate(-14.286 -19.226)" fill="#95d70b"/>
    <path id="Path_17" data-name="Path 17" d="M111.882,47.474a1.09,1.09,0,0,1-1.042-.775,30.734,30.734,0,0,0-1.245-3.391,1.089,1.089,0,0,1,2-.868,33.181,33.181,0,0,1,1.331,3.63,1.09,1.09,0,0,1-1.044,1.4Z" transform="translate(-38.9 -13.325)" fill="#0f89cc"/>
    <path id="Path_18" data-name="Path 18" d="M31.442,15.356c.118,1.456.423,3.031-.33,4.276-.7,1.158-2.091,1.649-3.342,2.166a10.422,10.422,0,0,0-5.377,4.213c-.927,1.693-1.064,3.691-1.606,5.545s-1.749,3.765-3.653,4.089c-2.85.485-4.935-2.732-7.624-3.722A35.853,35.853,0,0,1,32.182,9.4a14.994,14.994,0,0,0-.741,5.956Z" transform="translate(-1.137 -1.095)" fill="#95d70b"/>
    <g id="Group_125" data-name="Group 125" transform="translate(17.904 37.392)">
      <path id="Path_19" data-name="Path 19" d="M39.845,59.844a1.089,1.089,0,0,1-.8-1.827,22.618,22.618,0,0,1,1.631-1.605,1.089,1.089,0,0,1,1.443,1.632,20.3,20.3,0,0,0-1.473,1.449,1.085,1.085,0,0,1-.8.35Z" transform="translate(-30.086 -56.138)" fill="#ededf9"/>
      <path id="Path_20" data-name="Path 20" d="M26.252,88.177a1.09,1.09,0,0,1-1.07-.894,22.922,22.922,0,0,1-.358-4.081c0-.234,0-.466.011-.7a1.09,1.09,0,0,1,2.178.062c-.006.213-.009.428-.009.641a20.7,20.7,0,0,0,.323,3.688,1.089,1.089,0,0,1-.877,1.266,1.054,1.054,0,0,1-.2.016Zm.2-9.091a1.059,1.059,0,0,1-.215-.022,1.089,1.089,0,0,1-.854-1.281,33.411,33.411,0,0,1,1.261-4.553,1.089,1.089,0,1,1,2.054.725,31.3,31.3,0,0,0-1.183,4.256,1.088,1.088,0,0,1-1.064.876Zm3.012-8.61A1.088,1.088,0,0,1,28.49,68.9a37.21,37.21,0,0,1,2.372-4.068,1.089,1.089,0,1,1,1.8,1.215,35.153,35.153,0,0,0-2.234,3.83,1.089,1.089,0,0,1-.971.6Z" transform="translate(-24.824 -59.223)" fill="#ededf9"/>
      <path id="Path_21" data-name="Path 21" d="M29.633,110.282a1.088,1.088,0,0,1-.934-.527,19.1,19.1,0,0,1-1.072-2.048,1.089,1.089,0,1,1,1.987-.892,17.021,17.021,0,0,0,.95,1.814,1.09,1.09,0,0,1-.934,1.652Z" transform="translate(-25.846 -75.034)" fill="#ededf9"/>
    </g>
    <g id="Group_126" data-name="Group 126" transform="translate(29.216 13.931)">
      <path id="Path_22" data-name="Path 22" d="M83.295,23.924,70.676,19.132,67.53,21.908,75.173,28.6Z" transform="translate(-52.264 -18.701)" fill="#dddde3"/>
      <path id="Path_23" data-name="Path 23" d="M52.791,41.453,88.652,23.363a2.171,2.171,0,0,0-1.085-4.106l-2.546.124a6.954,6.954,0,0,0-7.086.059L50.178,36.191,47.632,34.97a3.734,3.734,0,0,0-3.892.4l-.74.565,5.637,4.982A3.734,3.734,0,0,0,52.791,41.453Z" transform="translate(-43 -18.44)" fill="#ededf9"/>
      <path id="Path_24" data-name="Path 24" d="M90.782,30.053,89.439,45.744l-3.865,1.632-3.45-12.44Z" transform="translate(-57.775 -22.826)" fill="#dddde3"/>
    </g>
  </g>
</svg>
