<svg xmlns="http://www.w3.org/2000/svg" width="64.113" height="64" viewBox="0 0 64.113 64">
  <g id="Group_199" data-name="Group 199" transform="translate(-0.001 -0.114)">
    <rect id="Rectangle_58" data-name="Rectangle 58" width="64" height="64" transform="translate(0.001 0.114)" fill="none"/>
    <path id="Path_30" data-name="Path 30" d="M92.754,61.962l-6.011,2a2,2,0,0,1-2.427-1L76.856,48.04h-20.8a2,2,0,0,1-2-2V38.608A14.025,14.025,0,0,0,58.06,66.072c6.489,0,12.545-4.521,14.088-10.519a2,2,0,0,1,3.882,1c-2.019,7.839-9.574,13.524-17.969,13.524a18.032,18.032,0,0,1-4.007-35.611V29.71a7.012,7.012,0,1,1,4.007,0v4.305H72.085a2,2,0,1,1,0,4.007H58.06v6.011H78.1a2,2,0,0,1,1.791,1.107l7.238,14.476,4.363-1.455a2,2,0,1,1,1.267,3.8Z" transform="translate(-30.011 -11.976)" fill="#fdc381"/>
  </g>
</svg>
