<svg id="Group_197" data-name="Group 197" xmlns="http://www.w3.org/2000/svg" width="64" height="64" viewBox="0 0 64 64">
  <rect id="Rectangle_57" data-name="Rectangle 57" width="64" height="64" fill="none"/>
  <path id="Path_29" data-name="Path 29" d="M66,50H63.3L56.355,34.375A4,4,0,0,0,52.7,32H23.3a4,4,0,0,0-3.655,2.375L12.7,50H10a2,2,0,0,0,0,4h2V74a4,4,0,0,0,4,4h6a4,4,0,0,0,4-4V72H50v2a4,4,0,0,0,4,4h6a4,4,0,0,0,4-4V54h2a2,2,0,0,0,0-4ZM17.077,50,23.3,36H52.7l6.222,14Z" transform="translate(-6 -24)" fill="#fdc381"/>
</svg>
