<svg id="Group_194" data-name="Group 194" xmlns="http://www.w3.org/2000/svg" width="64" height="64" viewBox="0 0 64 64">
  <rect id="Rectangle_56" data-name="Rectangle 56" width="64" height="64" fill="none"/>
  <path id="Path_28" data-name="Path 28" d="M73.659,43.91H71.581a21.85,21.85,0,0,0-43.516,0H25.986A1.986,1.986,0,0,0,24,45.9,25.91,25.91,0,0,0,37.9,68.809v.924a3.973,3.973,0,0,0,3.973,3.973H57.768a3.973,3.973,0,0,0,3.973-3.973v-.924A25.91,25.91,0,0,0,75.646,45.9,1.986,1.986,0,0,0,73.659,43.91ZM61.115,32.049q.683.559,1.309,1.179A21.83,21.83,0,0,0,50.22,43.9H42.9A17.942,17.942,0,0,1,59.755,31.992C60.209,31.992,60.663,32.014,61.115,32.049Zm-6.3,11.861a17.838,17.838,0,0,1,10.247-7.342,17.741,17.741,0,0,1,2.52,7.342Zm-5-15.891a17.845,17.845,0,0,1,4.718.638A21.939,21.939,0,0,0,38.731,43.91H32.06A17.9,17.9,0,0,1,49.823,28.019Z" transform="translate(-18.041 -18.087)" fill="#fdc381"/>
</svg>
