<svg xmlns="http://www.w3.org/2000/svg" width="64" height="64" viewBox="0 0 64 64">
  <g id="Group_201" data-name="Group 201" transform="translate(0.431 0.431)">
    <rect id="Rectangle_59" data-name="Rectangle 59" width="64" height="64" transform="translate(-0.431 -0.431)" fill="none"/>
    <path id="Path_31" data-name="Path 31" d="M31.294,30.515a3.946,3.946,0,0,1,0-5.581L47.079,9.149A3.947,3.947,0,0,1,52.66,14.73L36.876,30.515A3.946,3.946,0,0,1,31.294,30.515ZM78.31,34.8a3.946,3.946,0,0,0-5.581,0L56.944,50.584a3.946,3.946,0,0,0,0,5.581h0a3.946,3.946,0,0,0,5.581,0L78.31,40.381A3.946,3.946,0,0,0,78.31,34.8Zm-8.659-3.9L56.557,17.808a.987.987,0,0,0-1.4,0L39.954,33.016a.987.987,0,0,0,0,1.4L43.7,38.168,25.375,56.506a3.946,3.946,0,0,0,5.579,5.579L49.291,43.757l3.756,3.756a.987.987,0,0,0,1.4,0L69.651,32.306a.987.987,0,0,0,0-1.4Z" transform="translate(-18.299 -6.022)" fill="#fdc381"/>
  </g>
</svg>
