<?xml version="1.0" standalone="no"?>
<!DOCTYPE svg PUBLIC "-//W3C//DTD SVG 20010904//EN"
 "http://www.w3.org/TR/2001/REC-SVG-20010904/DTD/svg10.dtd">
<svg version="1.0" xmlns="http://www.w3.org/2000/svg"
 width="403.000000pt" height="403.000000pt" viewBox="0 0 403.000000 403.000000"
 preserveAspectRatio="xMidYMid meet">
<metadata>
Created by potrace 1.14, written by Peter Selinger 2001-2017
</metadata>
<g transform="translate(0.000000,403.000000) scale(0.100000,-0.100000)"
fill="#000000" stroke="none">
<path d="M1308 2905 c-9 -10 1 -62 23 -112 10 -24 19 -55 19 -67 0 -22 12 -42
67 -115 l23 -29 -43 9 c-23 6 -61 23 -85 40 -44 32 -102 54 -102 39 0 -5 8
-11 18 -15 11 -3 34 -24 52 -46 40 -51 82 -69 141 -63 44 5 47 3 72 -34 15
-21 27 -41 27 -44 0 -3 -18 3 -39 14 -34 17 -51 18 -121 12 -68 -6 -79 -9 -68
-20 7 -8 41 -16 75 -18 34 -2 70 -9 80 -14 10 -5 34 -8 54 -7 34 2 36 0 55
-56 l21 -58 -39 20 c-25 13 -65 21 -116 23 -76 4 -77 4 -54 -14 12 -10 41 -21
63 -25 23 -4 60 -15 82 -25 22 -10 50 -17 62 -15 16 1 28 -7 39 -26 l17 -28
-33 14 c-29 11 -43 11 -98 0 -36 -8 -78 -15 -95 -15 l-30 -2 40 -19 c29 -13
51 -17 80 -12 22 3 67 6 99 5 58 0 61 -2 105 -49 54 -57 90 -87 76 -63 -5 8
-22 25 -37 38 -48 40 -70 79 -59 100 6 11 13 33 16 50 2 16 19 56 35 87 17 32
28 60 26 62 -4 5 -69 -63 -93 -97 -6 -9 -13 -34 -15 -56 l-3 -39 -24 38 -23
38 32 71 c35 79 47 150 32 188 l-10 25 -7 -30 c-4 -16 -20 -60 -36 -98 -16
-37 -29 -77 -29 -90 -1 -25 -40 67 -40 93 0 9 13 40 29 70 52 98 62 124 59
163 l-3 39 -41 -64 c-57 -87 -65 -105 -66 -139 -1 -28 -2 -29 -17 -14 -14 14
-14 20 3 68 26 73 32 166 12 192 -15 19 -15 19 -16 -10 0 -17 -9 -56 -20 -88
-11 -31 -20 -69 -20 -84 0 -27 0 -27 -27 12 -22 31 -28 53 -29 98 -2 46 -8 66
-31 98 -15 22 -35 53 -43 70 -9 16 -19 27 -22 24z"/>
<path d="M2462 2819 c-7 -20 -33 -57 -57 -82 -24 -26 -52 -61 -61 -79 -22 -42
-23 -142 -2 -182 14 -28 14 -29 -26 -71 -42 -43 -112 -94 -90 -65 19 25 42
117 38 156 -2 20 -11 58 -19 85 -9 27 -17 66 -18 89 -1 22 -5 40 -8 40 -16 0
-35 -69 -31 -115 5 -54 5 -104 0 -175 -2 -25 0 -59 4 -76 6 -29 4 -33 -23 -44
-16 -7 -55 -28 -85 -46 -41 -25 -54 -29 -49 -16 38 89 43 110 38 162 -3 30 -6
83 -7 116 -1 37 -5 60 -11 58 -24 -10 -38 -53 -45 -138 -4 -50 -13 -106 -20
-124 -7 -20 -10 -52 -7 -77 6 -42 5 -45 -32 -74 l-39 -31 14 38 c16 48 10 86
-27 182 -15 41 -29 92 -31 112 -3 49 -23 33 -36 -28 -8 -36 -6 -62 9 -122 37
-153 40 -223 10 -256 -27 -31 -71 -99 -71 -111 0 -5 15 12 33 40 17 27 41 59
53 72 19 21 23 21 60 8 21 -8 61 -14 87 -15 30 0 65 -9 96 -24 51 -26 159 -47
148 -29 -4 6 -20 13 -35 16 -16 3 -50 22 -75 41 -74 56 -97 65 -165 62 -34 -2
-62 -2 -62 0 0 1 25 23 56 48 44 36 59 44 74 36 23 -12 98 -37 130 -44 14 -3
46 -9 72 -14 75 -15 171 0 197 31 8 10 2 12 -24 9 -36 -4 -104 9 -195 39 -30
10 -74 19 -98 20 -23 2 -42 4 -42 5 0 0 34 18 75 39 91 45 110 44 259 -15 101
-41 150 -48 205 -29 34 12 34 21 -2 26 -12 2 -58 21 -102 42 -102 50 -140 61
-192 57 l-43 -3 27 25 c28 25 28 25 86 10 131 -34 265 -20 312 32 16 17 15 18
-17 11 -44 -10 -67 -8 -198 17 -25 5 -61 7 -80 4 l-34 -4 50 50 c43 43 57 50
104 56 105 13 130 25 204 94 40 37 81 72 91 78 18 10 18 11 -3 16 -21 6 -63
-12 -157 -65 -16 -10 -55 -26 -86 -37 -31 -11 -66 -30 -77 -43 -12 -12 -44
-46 -72 -76 l-50 -53 5 68 c4 53 14 85 46 147 31 62 39 88 37 120 l-3 42 -13
-36z"/>
<path d="M140 2080 c0 -20 7 -20 710 -20 703 0 710 0 710 20 0 20 -7 20 -710
20 -703 0 -710 0 -710 -20z"/>
<path d="M2500 2080 c0 -20 7 -20 715 -20 708 0 715 0 715 20 0 20 -7 20 -715
20 -708 0 -715 0 -715 -20z"/>
<path d="M152 1783 c20 -24 20 -212 -1 -236 -12 -16 -2 -17 128 -17 87 0 141
4 141 10 0 5 -4 9 -9 7 -13 -3 -14 4 -6 36 7 25 11 27 55 27 46 0 49 -2 55
-31 5 -22 3 -34 -6 -40 -9 -6 5 -9 39 -9 55 0 60 4 39 29 -8 9 -30 61 -51 116
-47 128 -51 135 -69 115 -8 -8 -34 -65 -57 -127 -45 -116 -77 -157 -65 -85 l7
37 -25 -30 c-20 -24 -34 -32 -67 -33 l-42 -3 3 126 4 125 -44 0 c-41 0 -43 -1
-29 -17z m338 -140 c0 -8 -13 -13 -30 -13 -32 0 -35 6 -21 42 5 13 12 32 16
43 5 17 9 13 21 -20 7 -22 14 -46 14 -52z"/>
<path d="M713 1793 c-35 -7 -80 -55 -93 -100 -11 -35 -10 -46 8 -86 33 -74
117 -102 192 -65 38 19 59 49 23 32 -10 -4 -37 -9 -60 -12 -38 -4 -47 0 -78
31 -27 27 -35 43 -35 72 0 60 26 103 66 111 39 7 94 -11 94 -32 0 -24 18 -15
24 12 4 15 5 28 3 30 -7 7 -120 13 -144 7z"/>
<path d="M993 1788 c-5 -7 -29 -62 -53 -123 -24 -60 -51 -115 -59 -122 -13
-10 -9 -12 27 -13 27 0 41 4 37 10 -4 6 -10 8 -15 5 -5 -3 -5 9 1 27 5 18 9
34 9 35 0 2 22 3 49 3 47 0 50 -2 56 -30 4 -16 4 -34 0 -40 -4 -6 11 -10 39
-10 25 0 46 5 46 10 0 6 -3 10 -8 10 -4 0 -18 28 -30 63 -13 34 -30 76 -36 92
-7 17 -19 45 -26 63 -13 34 -22 39 -37 20z m26 -145 c1 -8 -11 -13 -29 -13
-34 0 -36 7 -14 58 l16 37 13 -35 c8 -19 14 -41 14 -47z"/>
<path d="M1190 1787 c-13 -7 -29 -25 -34 -39 -13 -38 7 -72 61 -103 54 -32 69
-58 47 -80 -24 -24 -66 -15 -82 18 -15 32 -28 35 -35 7 -9 -36 16 -55 77 -55
64 0 99 25 99 69 0 32 -20 55 -79 92 -52 33 -61 69 -19 80 33 8 54 -1 64 -28
9 -23 9 -23 24 24 3 9 -1 19 -9 22 -26 10 -88 6 -114 -7z"/>
<path d="M1453 1788 c-6 -7 -29 -62 -53 -123 -23 -60 -50 -115 -59 -122 -13
-10 -9 -12 27 -13 23 0 42 5 42 10 0 5 -3 9 -7 8 -12 -4 -14 9 -7 37 6 22 11
25 55 25 44 0 49 -3 55 -25 3 -14 4 -32 0 -40 -4 -12 4 -15 39 -15 47 0 56 9
30 30 -8 7 -15 16 -15 21 0 18 -82 219 -90 219 -4 0 -12 -6 -17 -12z m26 -145
c1 -8 -11 -13 -29 -13 -34 0 -36 7 -14 58 l16 37 13 -35 c8 -19 14 -41 14 -47z"/>
<path d="M1751 1784 c22 -25 22 -212 0 -238 -13 -15 -9 -16 43 -14 31 1 56 6
56 10 0 4 -7 8 -15 8 -11 0 -15 12 -15 45 0 61 17 58 60 -10 32 -51 38 -55 73
-55 20 0 37 5 37 10 0 6 -4 10 -9 10 -5 0 -26 23 -46 51 -36 51 -37 64 -3 89
18 14 18 57 -1 81 -17 22 -28 24 -108 28 -85 3 -87 3 -72 -15z m123 -26 c9
-12 16 -31 16 -42 0 -25 -28 -56 -52 -56 -15 0 -18 8 -18 60 0 53 2 60 19 60
11 0 27 -10 35 -22z"/>
<path d="M2014 1778 c19 -31 17 -208 -3 -232 -13 -16 -7 -17 84 -14 l99 3 7
29 c11 40 4 44 -22 13 -16 -22 -28 -27 -60 -25 l-39 1 0 54 0 53 35 0 c21 0
34 -5 33 -11 -2 -6 3 -14 10 -16 8 -3 12 7 12 31 0 20 -4 36 -10 36 -5 0 -10
-4 -10 -10 0 -5 -16 -10 -35 -10 l-35 0 0 51 0 50 43 -3 c35 -2 43 -7 45 -25
4 -24 21 -32 23 -10 0 6 2 22 5 35 4 22 2 22 -96 22 l-100 0 14 -22z"/>
<path d="M2282 1790 c-12 -5 -27 -21 -33 -34 -17 -37 3 -76 56 -110 57 -35 71
-59 49 -81 -24 -24 -66 -15 -82 18 -16 34 -28 35 -34 2 -7 -35 16 -50 77 -50
64 0 95 23 95 70 0 34 -21 58 -78 91 -36 21 -53 61 -31 75 27 17 59 10 71 -16
6 -14 14 -25 18 -25 12 0 17 59 6 63 -23 8 -92 6 -114 -3z"/>
<path d="M2450 1790 c0 -5 6 -10 14 -10 20 0 17 -209 -3 -234 -13 -15 -9 -16
44 -15 49 2 55 4 41 15 -16 11 -17 28 -14 133 l3 121 -42 0 c-24 0 -43 -4 -43
-10z"/>
<path d="M2602 1783 c22 -24 22 -197 1 -231 l-14 -23 75 2 c136 3 201 55 193
152 -7 86 -59 117 -196 117 -70 0 -73 -1 -59 -17z m142 -13 c48 -18 71 -111
42 -168 -16 -32 -33 -41 -83 -49 l-33 -5 0 116 0 116 24 0 c14 0 36 -4 50 -10z"/>
<path d="M2901 1787 c21 -17 24 -202 3 -234 l-14 -23 95 0 c93 0 96 1 105 26
19 49 4 63 -20 19 -11 -21 -21 -25 -57 -25 l-43 0 0 55 0 55 35 0 c24 0 35 -5
35 -15 0 -8 5 -15 10 -15 6 0 10 19 10 43 -1 37 -2 40 -14 25 -8 -11 -26 -18
-45 -18 -31 0 -31 1 -31 50 l0 50 40 0 c35 0 42 -4 52 -27 l11 -28 7 25 c16
50 16 50 -92 50 -83 -1 -100 -3 -87 -13z"/>
<path d="M3130 1794 c0 -3 6 -12 14 -19 21 -21 19 -204 -2 -227 -14 -17 -12
-18 26 -18 23 0 42 5 42 11 0 5 -5 7 -10 4 -16 -10 -21 17 -18 100 l3 78 67
-69 c37 -38 78 -82 91 -98 14 -16 29 -26 34 -23 5 3 8 54 8 114 -1 76 2 115
12 131 13 21 12 22 -27 22 -22 0 -40 -4 -40 -10 0 -5 6 -10 14 -10 17 0 23
-40 17 -113 l-3 -48 -85 90 c-69 74 -90 91 -114 91 -16 0 -29 -3 -29 -6z"/>
<path d="M3545 1793 c-50 -14 -104 -81 -100 -123 1 -8 3 -26 3 -40 2 -29 36
-71 71 -90 34 -17 106 -14 141 7 35 20 40 38 8 26 -47 -17 -107 -9 -133 18
-27 26 -41 82 -32 121 17 68 95 91 144 42 14 -14 26 -24 28 -22 7 10 14 58 8
58 -5 1 -33 2 -63 5 -30 2 -64 1 -75 -2z"/>
<path d="M3720 1790 c0 -5 6 -10 14 -10 20 0 17 -209 -3 -234 -13 -16 -7 -17
84 -14 l99 3 7 29 c8 28 1 54 -8 31 -10 -29 -25 -38 -66 -42 l-46 -5 0 56 0
56 35 0 c24 0 34 -5 34 -15 0 -8 5 -15 10 -15 6 0 10 16 10 35 0 19 -4 35 -10
35 -5 0 -10 -4 -10 -10 0 -5 -16 -10 -35 -10 l-35 0 0 51 0 50 43 -3 c35 -2
43 -7 45 -25 4 -24 22 -32 22 -10 0 6 3 22 6 35 6 22 5 22 -95 22 -61 0 -101
-4 -101 -10z"/>
<path d="M267 1368 c-9 -6 -9 -8 -1 -8 13 0 14 -108 1 -127 -6 -10 2 -13 30
-12 21 0 32 3 26 6 -7 2 -13 18 -13 35 0 27 2 30 25 24 21 -5 25 -3 25 16 0
17 -3 19 -12 10 -21 -21 -38 -13 -38 18 0 22 5 30 18 30 10 0 23 -5 30 -12 9
-9 12 -9 12 0 0 7 0 15 0 18 0 9 -90 10 -103 2z"/>
<path d="M448 1373 c17 -7 17 -139 0 -146 -7 -3 5 -6 27 -6 25 0 35 2 27 8 -8
5 -12 21 -10 37 l3 29 25 -37 c17 -26 33 -38 48 -38 l24 0 -27 31 c-16 20 -24
38 -19 48 25 60 8 81 -65 80 -25 0 -40 -3 -33 -6z m72 -18 c14 -17 4 -55 -16
-55 -9 0 -14 11 -14 35 0 37 10 44 30 20z"/>
<path d="M693 1370 c-49 -20 -59 -96 -17 -129 38 -30 80 -27 114 8 23 23 28
35 25 62 -7 58 -61 83 -122 59z m69 -17 c37 -33 15 -123 -29 -123 -29 0 -45
24 -47 69 -1 63 36 90 76 54z"/>
<path d="M898 1371 c14 -8 12 -117 -2 -140 -4 -6 0 -11 11 -11 16 0 18 8 16
62 l-2 63 15 -35 c8 -19 20 -48 27 -64 l13 -30 27 65 27 64 -2 -63 -3 -62 30
0 c17 0 25 4 19 8 -6 4 -10 39 -10 79 1 69 0 73 -21 73 -13 0 -23 -6 -23 -12
0 -7 -9 -31 -18 -53 l-18 -40 -19 53 c-17 47 -22 52 -49 52 -20 0 -26 -3 -18
-9z"/>
<path d="M1295 1300 l0 -80 29 0 c23 0 26 3 17 14 -6 7 -10 25 -9 40 2 23 7
26 40 26 35 0 38 -2 38 -28 0 -15 -5 -33 -12 -40 -9 -9 -3 -12 28 -11 21 0 33
3 27 6 -9 3 -13 29 -13 79 l0 74 -27 -1 c-16 0 -22 -3 -15 -6 6 -2 12 -18 12
-34 0 -29 -2 -30 -37 -27 -36 3 -38 5 -37 36 2 27 -2 32 -20 32 -20 0 -21 -5
-21 -80z"/>
<path d="M1573 1368 c-28 -13 -46 -58 -37 -92 22 -88 163 -65 164 27 0 58 -68
93 -127 65z m63 -6 c33 -22 39 -91 9 -121 -19 -19 -62 -6 -71 21 -21 68 17
130 62 100z"/>
<path d="M1792 1363 c9 -10 26 -46 38 -81 13 -35 26 -59 30 -55 4 4 15 30 25
56 10 26 21 50 25 52 9 6 6 -87 -3 -102 -6 -10 1 -13 25 -13 18 0 28 4 23 8
-6 4 -11 40 -10 79 0 67 -2 73 -21 73 -15 0 -24 -12 -38 -50 -17 -48 -36 -59
-36 -20 0 10 -4 22 -10 25 -5 3 -10 15 -10 26 0 14 -7 19 -27 19 -24 0 -25 -1
-11 -17z"/>
<path d="M2038 1371 c10 -6 13 -28 10 -80 l-3 -71 51 0 c39 0 53 4 58 16 9 23
1 28 -14 9 -7 -8 -22 -15 -35 -15 -18 0 -22 6 -22 35 0 27 4 35 19 35 10 0 18
-5 18 -11 0 -5 4 -8 10 -4 17 11 -1 32 -24 28 -19 -4 -22 0 -22 26 0 24 4 31
19 31 11 0 26 -8 33 -17 12 -17 13 -16 14 5 0 20 -4 22 -62 22 -39 0 -58 -4
-50 -9z"/>
<path d="M2355 1361 c-3 -8 -2 -17 1 -20 4 -3 9 0 11 7 3 6 14 12 25 12 18 0
19 -6 16 -70 l-3 -70 30 0 c17 0 25 4 18 8 -6 4 -11 33 -12 70 0 52 3 62 18
62 9 0 22 -5 28 -11 7 -7 12 -6 16 5 4 10 1 16 -8 17 -98 5 -135 3 -140 -10z"/>
<path d="M2613 1370 c-75 -31 -46 -150 36 -150 48 0 95 52 87 94 -4 17 -12 37
-19 44 -18 17 -76 24 -104 12z m71 -22 c32 -45 10 -118 -34 -118 -23 0 -36 17
-45 58 -14 64 45 109 79 60z"/>
<path d="M2948 1368 c11 -15 11 -117 -1 -135 -6 -10 0 -13 22 -13 27 0 30 2
23 23 -15 40 -4 56 35 55 34 -1 35 -2 31 -40 -3 -33 -1 -38 17 -38 18 0 20 6
20 80 0 74 -2 80 -20 80 -18 0 -20 -5 -17 -35 4 -34 3 -35 -32 -35 -34 0 -36
1 -36 35 0 31 -3 35 -26 35 -20 0 -24 -3 -16 -12z"/>
<path d="M3217 1359 c-14 -13 -27 -31 -28 -39 -7 -61 24 -100 77 -100 47 0 84
37 84 82 -1 46 -22 69 -67 75 -32 4 -44 1 -66 -18z m87 -11 c30 -43 9 -118
-34 -118 -24 0 -50 37 -50 72 0 63 53 91 84 46z"/>
<path d="M3447 1358 c11 -13 28 -45 38 -73 10 -27 21 -54 25 -58 4 -4 19 23
33 60 l25 68 1 -62 c1 -40 -3 -63 -11 -66 -7 -3 3 -6 22 -6 19 0 30 3 24 7 -6
4 -10 39 -10 79 1 67 -1 73 -19 73 -16 0 -25 -13 -40 -56 l-19 -57 -21 57
c-17 47 -24 56 -44 56 l-24 0 20 -22z"/>
<path d="M3698 1372 c15 -10 13 -133 -3 -144 -5 -4 15 -8 46 -8 44 0 58 4 63
16 9 23 1 28 -14 9 -15 -18 -47 -20 -52 -3 -9 26 4 58 24 58 10 0 16 -4 13
-10 -3 -5 -1 -10 4 -10 6 0 11 8 11 19 0 14 -6 17 -25 13 -22 -4 -25 -1 -25
27 0 24 4 31 20 31 10 0 23 -7 28 -16 8 -14 10 -13 15 5 5 20 1 21 -56 21 -35
0 -56 -4 -49 -8z"/>
<path d="M1791 1313 c-1 -55 -1 -55 -12 -75 -8 -14 -6 -18 8 -18 15 0 18 7 15
48 -4 72 -9 92 -11 45z"/>
<path d="M3441 1293 c-1 -33 -2 -36 -12 -55 -8 -14 -6 -18 9 -18 15 0 17 6 14
38 -4 46 -10 64 -11 35z"/>
</g>
</svg>
